<svg width="38" height="38" viewBox="0 0 38 38" fill="none" xmlns="http://www.w3.org/2000/svg">
<path d="M24.6909 6.65723H13.3068C9.63344 6.65723 6.65625 9.63495 6.65625 13.3078V24.6919C6.65625 28.3653 9.63397 31.3425 13.3073 31.3425H24.6904C28.3638 31.3425 31.3415 28.3647 31.3415 24.6914V13.3078C31.3415 9.63442 28.3638 6.65723 24.6904 6.65723H24.6909Z" stroke="#F2F2F2" stroke-width="2" stroke-miterlimit="10"/>
<path d="M18.9996 24.9592C22.2905 24.9592 24.9582 22.2915 24.9582 19.0006C24.9582 15.7098 22.2905 13.042 18.9996 13.042C15.7088 13.042 13.041 15.7098 13.041 19.0006C13.041 22.2915 15.7088 24.9592 18.9996 24.9592Z" stroke="#F2F2F2" stroke-width="2" stroke-miterlimit="10"/>
<path d="M26.2357 13.0417C26.9408 13.0417 27.5124 12.4701 27.5124 11.765C27.5124 11.0599 26.9408 10.4883 26.2357 10.4883C25.5306 10.4883 24.959 11.0599 24.959 11.765C24.959 12.4701 25.5306 13.0417 26.2357 13.0417Z" fill="#F2F2F2"/>
</svg>
